<svg id="mermaid-1617217009631" width="100%" xmlns="http://www.w3.org/2000/svg" xmlns:xlink="http://www.w3.org/1999/xlink" height="590.890625" style="max-width: 1275.90625px;" viewBox="-20 -20 1275.90625 590.890625"><style>#mermaid-1617217009631{font-family:"trebuchet ms",verdana,arial,sans-serif;font-size:16px;fill:#333;}#mermaid-1617217009631 .error-icon{fill:#552222;}#mermaid-1617217009631 .error-text{fill:#552222;stroke:#552222;}#mermaid-1617217009631 .edge-thickness-normal{stroke-width:2px;}#mermaid-1617217009631 .edge-thickness-thick{stroke-width:3.5px;}#mermaid-1617217009631 .edge-pattern-solid{stroke-dasharray:0;}#mermaid-1617217009631 .edge-pattern-dashed{stroke-dasharray:3;}#mermaid-1617217009631 .edge-pattern-dotted{stroke-dasharray:2;}#mermaid-1617217009631 .marker{fill:#333333;stroke:#333333;}#mermaid-1617217009631 .marker.cross{stroke:#333333;}#mermaid-1617217009631 svg{font-family:"trebuchet ms",verdana,arial,sans-serif;font-size:16px;}#mermaid-1617217009631 g.classGroup text{fill:#9370DB;fill:#131300;stroke:none;font-family:"trebuchet ms",verdana,arial,sans-serif;font-size:10px;}#mermaid-1617217009631 g.classGroup text .title{font-weight:bolder;}#mermaid-1617217009631 .classTitle{font-weight:bolder;}#mermaid-1617217009631 .node rect,#mermaid-1617217009631 .node circle,#mermaid-1617217009631 .node ellipse,#mermaid-1617217009631 .node polygon,#mermaid-1617217009631 .node path{fill:#ECECFF;stroke:#9370DB;stroke-width:1px;}#mermaid-1617217009631 .divider{stroke:#9370DB;stroke:1;}#mermaid-1617217009631 g.clickable{cursor:pointer;}#mermaid-1617217009631 g.classGroup rect{fill:#ECECFF;stroke:#9370DB;}#mermaid-1617217009631 g.classGroup line{stroke:#9370DB;stroke-width:1;}#mermaid-1617217009631 .classLabel .box{stroke:none;stroke-width:0;fill:#ECECFF;opacity:0.5;}#mermaid-1617217009631 .classLabel .label{fill:#9370DB;font-size:10px;}#mermaid-1617217009631 .relation{stroke:#333333;stroke-width:1;fill:none;}#mermaid-1617217009631 .dashed-line{stroke-dasharray:3;}#mermaid-1617217009631 #compositionStart,#mermaid-1617217009631 .composition{fill:#333333 !important;stroke:#333333 !important;stroke-width:1;}#mermaid-1617217009631 #compositionEnd,#mermaid-1617217009631 .composition{fill:#333333 !important;stroke:#333333 !important;stroke-width:1;}#mermaid-1617217009631 #dependencyStart,#mermaid-1617217009631 .dependency{fill:#333333 !important;stroke:#333333 !important;stroke-width:1;}#mermaid-1617217009631 #dependencyStart,#mermaid-1617217009631 .dependency{fill:#333333 !important;stroke:#333333 !important;stroke-width:1;}#mermaid-1617217009631 #extensionStart,#mermaid-1617217009631 .extension{fill:#333333 !important;stroke:#333333 !important;stroke-width:1;}#mermaid-1617217009631 #extensionEnd,#mermaid-1617217009631 .extension{fill:#333333 !important;stroke:#333333 !important;stroke-width:1;}#mermaid-1617217009631 #aggregationStart,#mermaid-1617217009631 .aggregation{fill:#ECECFF !important;stroke:#333333 !important;stroke-width:1;}#mermaid-1617217009631 #aggregationEnd,#mermaid-1617217009631 .aggregation{fill:#ECECFF !important;stroke:#333333 !important;stroke-width:1;}#mermaid-1617217009631 .edgeTerminals{font-size:11px;}#mermaid-1617217009631:root{--mermaid-font-family:"trebuchet ms",verdana,arial,sans-serif;}#mermaid-1617217009631 class{fill:apa;}</style><g/><defs><marker id="extensionStart" class="extension" refX="0" refY="7" markerWidth="190" markerHeight="240" orient="auto"><path d="M 1,7 L18,13 V 1 Z"/></marker></defs><defs><marker id="extensionEnd" refX="19" refY="7" markerWidth="20" markerHeight="28" orient="auto"><path d="M 1,1 V 13 L18,7 Z"/></marker></defs><defs><marker id="compositionStart" class="extension" refX="0" refY="7" markerWidth="190" markerHeight="240" orient="auto"><path d="M 18,7 L9,13 L1,7 L9,1 Z"/></marker></defs><defs><marker id="compositionEnd" refX="19" refY="7" markerWidth="20" markerHeight="28" orient="auto"><path d="M 18,7 L9,13 L1,7 L9,1 Z"/></marker></defs><defs><marker id="aggregationStart" class="extension" refX="0" refY="7" markerWidth="190" markerHeight="240" orient="auto"><path d="M 18,7 L9,13 L1,7 L9,1 Z"/></marker></defs><defs><marker id="aggregationEnd" refX="19" refY="7" markerWidth="20" markerHeight="28" orient="auto"><path d="M 18,7 L9,13 L1,7 L9,1 Z"/></marker></defs><defs><marker id="dependencyStart" class="extension" refX="0" refY="7" markerWidth="190" markerHeight="240" orient="auto"><path d="M 5,7 L9,13 L1,7 L9,1 Z"/></marker></defs><defs><marker id="dependencyEnd" refX="19" refY="7" markerWidth="20" markerHeight="28" orient="auto"><path d="M 18,7 L9,13 L14,7 L9,1 Z"/></marker></defs><g id="classid-car-0" class="classGroup" transform="translate(195.9375,468.375 )"><rect x="0" y="0" width="145.9375" height="82.515625" class=" "/><text y="15" x="0"><tspan class="title" x="64.484375">car</tspan></text><line x1="0" y1="21.671875" y2="21.671875" x2="145.9375"/><text x="5" y="31.671875" fill="white" class="classText"><tspan x="5">+float miles_per_galon</tspan><tspan x="5" dy="10">+int VIN</tspan><tspan x="5" dy="10">+string make_and_model</tspan><tspan x="5" dy="10">+int number_of_passsengers</tspan><tspan x="5" dy="10">+int number_of_doors</tspan></text><line x1="0" y1="78.34375" y2="78.34375" x2="145.9375"/><text x="5" y="93.34375" fill="white" class="classText"/></g><g id="classid-Van-1" class="classGroup" transform="translate(0,473.375 )"><rect x="0" y="0" width="145.9375" height="72.515625" class=" "/><text y="15" x="0"><tspan class="title" x="63.3671875">Van</tspan></text><line x1="0" y1="21.671875" y2="21.671875" x2="145.9375"/><text x="5" y="31.671875" fill="white" class="classText"><tspan x="5">+float miles_per_galon</tspan><tspan x="5" dy="10">+int VIN</tspan><tspan x="5" dy="10">+string make_and_model</tspan><tspan x="5" dy="10">+int number_of_passsengers</tspan></text><line x1="0" y1="68.34375" y2="68.34375" x2="145.9375"/><text x="5" y="83.34375" fill="white" class="classText"/></g><g id="classid-Truck-2" class="classGroup" transform="translate(391.875,483.375 )"><rect x="0" y="0" width="117.015625" height="52.515625" class=" "/><text y="15" x="0"><tspan class="title" x="44.187503814697266">Truck</tspan></text><line x1="0" y1="21.671875" y2="21.671875" x2="117.01563262939453"/><text x="5" y="31.671875" fill="white" class="classText"><tspan x="5">+float miles_per_galon</tspan><tspan x="5" dy="10">+int VIN</tspan></text><line x1="0" y1="48.34375" y2="48.34375" x2="117.01563262939453"/><text x="5" y="63.34375" fill="white" class="classText"/></g><g id="classid-Vehicle-3" class="classGroup" transform="translate(112.42968368530273,348.359375 )"><rect x="0" y="0" width="117.015625" height="70.015625" class=" "/><text y="15" x="0"><tspan class="title" x="40.296878814697266">Vehicle</tspan></text><line x1="0" y1="21.671875" y2="21.671875" x2="117.01563262939453"/><text x="5" y="31.671875" fill="white" class="classText"><tspan x="5">+float miles_per_galon</tspan><tspan x="5" dy="10">+int VIN</tspan></text><line x1="0" y1="48.34375" y2="48.34375" x2="117.01563262939453"/><text x="5" y="63.34375" fill="white" class="classText"><tspan x="5">+getAttributes()</tspan></text></g><g id="classid-Vehicles-4" class="classGroup" transform="translate(76.671875,183.34375 )"><rect x="0" y="0" width="188.53125" height="90.015625" class=" "/><text y="15" x="0"><tspan class="title" x="73.2734375">Vehicles</tspan></text><line x1="0" y1="21.671875" y2="21.671875" x2="188.53125"/><text x="5" y="31.671875" fill="white" class="classText"><tspan x="5">+List &lt;object&gt; Vehicle</tspan></text><line x1="0" y1="38.34375" y2="38.34375" x2="188.53125"/><text x="5" y="53.34375" fill="white" class="classText"><tspan x="5">+checkAvailability(int vehicle_id)</tspan><tspan x="5" dy="10">+getMilesPerGalon(int vehicle_id)</tspan><tspan x="5" dy="10">+getAttributes(int vehicle_id)</tspan><tspan x="5" dy="10">+getNumberAvailable(str vehicle_type)</tspan></text></g><g id="classid-SystemInterface-5" class="classGroup" transform="translate(564.2109375,0 )"><rect x="0" y="0" width="316.546875" height="108.34375" class=" "/><text y="15" x="0"><tspan class="title" x="118.6640625">SystemInterface</tspan></text><line x1="0" y1="21.671875" y2="21.671875" x2="316.546875"/><text x="5" y="31.671875" fill="white" class="classText"/><line x1="0" y1="26.671875" y2="26.671875" x2="316.546875"/><text x="5" y="41.671875" fill="white" class="classText"><tspan x="5">+getVehicleList()</tspan><tspan x="5" dy="10">+getVehicleCost(int vehicle_id,str type_of_cost)</tspan><tspan x="5" dy="10">+getCustomCost(int vehicle_id,str type_of_cost,int period_or_miles)</tspan><tspan x="5" dy="10">+getInsuranceCost(int vehicle_id)</tspan><tspan x="5" dy="10">+reserveVehicle(int vehicle_id)</tspan><tspan x="5" dy="10">+getVehicleAttributes(int vehicle_id)</tspan><tspan x="5" dy="10">+cancelReservation()</tspan></text></g><g id="classid-RentalAgencyUI-6" class="classGroup" transform="translate(315.203125,158.34375 )"><rect x="0" y="0" width="316.546875" height="140.015625" class=" "/><text y="15" x="0"><tspan class="title" x="119.2265625">RentalAgencyUI</tspan></text><line x1="0" y1="21.671875" y2="21.671875" x2="316.546875"/><text x="5" y="31.671875" fill="white" class="classText"><tspan x="5">int user_id</tspan><tspan x="5" dy="10">int chosen_id</tspan></text><line x1="0" y1="48.34375" y2="48.34375" x2="316.546875"/><text x="5" y="63.34375" fill="white" class="classText"><tspan x="5">+getVehicleList()</tspan><tspan x="5" dy="10">+chooseVehicle()</tspan><tspan x="5" dy="10">+getVehicleCost(int vehicle_id,str type_of_cost)</tspan><tspan x="5" dy="10">+getCustomCost(int vehicle_id,str type_of_cost,int period_or_miles)</tspan><tspan x="5" dy="10">+getInsuranceCost(int vehicle_id)</tspan><tspan x="5" dy="10">+getVehicleAttributes()</tspan><tspan x="5" dy="10">+reserveVehicle(int vehicle_id)</tspan><tspan x="5" dy="10">+cancelReservation()</tspan></text></g><g id="classid-Reservations-7" class="classGroup" transform="translate(681.75,188.34375 )"><rect x="0" y="0" width="187.609375" height="80.015625" class=" "/><text y="15" x="0"><tspan class="title" x="61.421875">Reservations</tspan></text><line x1="0" y1="21.671875" y2="21.671875" x2="187.609375"/><text x="5" y="31.671875" fill="white" class="classText"><tspan x="5">+List &lt;object&gt; Reservation</tspan></text><line x1="0" y1="38.34375" y2="38.34375" x2="187.609375"/><text x="5" y="53.34375" fill="white" class="classText"><tspan x="5">+getReservationId(int user_id)</tspan><tspan x="5" dy="10">+cancelReservation(int reservation_id)</tspan><tspan x="5" dy="10">+reserveVehicle(int vehicle_id)</tspan></text></g><g id="classid-Reservation-8" class="classGroup" transform="translate(726.5,357.109375 )"><rect x="0" y="0" width="98.109375" height="52.515625" class=" "/><text y="15" x="0"><tspan class="title" x="19.7265625">Reservation</tspan></text><line x1="0" y1="21.671875" y2="21.671875" x2="98.109375"/><text x="5" y="31.671875" fill="white" class="classText"><tspan x="5">+int reservation_id</tspan><tspan x="5" dy="10">+int vehicle_id</tspan></text><line x1="0" y1="48.34375" y2="48.34375" x2="98.109375"/><text x="5" y="63.34375" fill="white" class="classText"/></g><g id="classid-VehicleCosts-9" class="classGroup" transform="translate(919.359375,188.34375 )"><rect x="0" y="0" width="316.546875" height="80.015625" class=" "/><text y="15" x="0"><tspan class="title" x="126.171875">VehicleCosts</tspan></text><line x1="0" y1="21.671875" y2="21.671875" x2="316.546875"/><text x="5" y="31.671875" fill="white" class="classText"><tspan x="5">+List &lt;object&gt; VehicleCost</tspan></text><line x1="0" y1="38.34375" y2="38.34375" x2="316.546875"/><text x="5" y="53.34375" fill="white" class="classText"><tspan x="5">+getVehicleCost(int vehicle_id,str type_of_cost)</tspan><tspan x="5" dy="10">+getCustomCost(int vehicle_id,str type_of_cost,int period_or_miles)</tspan><tspan x="5" dy="10">+getInsuranceCost(int vehicle_id)</tspan></text></g><g id="classid-VehicleCost-10" class="classGroup" transform="translate(949.65625,349.1953125 )"><rect x="0" y="0" width="255.953125" height="68.34375" class=" "/><text y="15" x="0"><tspan class="title" x="98.7890625">VehicleCost</tspan></text><line x1="0" y1="21.671875" y2="21.671875" x2="255.953125"/><text x="5" y="31.671875" fill="white" class="classText"/><line x1="0" y1="26.671875" y2="26.671875" x2="255.953125"/><text x="5" y="41.671875" fill="white" class="classText"><tspan x="5">+getVehicleCost(str type_of_cost)</tspan><tspan x="5" dy="10">+getCustomCost(str type_of_cost,int period_or_miles)</tspan><tspan x="5" dy="10">+getInsuranceCost()</tspan></text></g><path d="M113.78374804712928,418.375L106.98124837260774,422.5416666666667C100.17874869808618,426.7083333333333,86.5737493490431,435.0416666666667,79.77124967452154,444.2083333333333C72.96875,453.375,72.96875,463.375,72.96875,468.375L72.96875,473.375" id="edge0" class="relation" marker-start="url(#extensionStart)"/><path d="M228.09125195287072,418.375L234.89375162739225,422.5416666666667C241.6962513019138,426.7083333333333,255.30125065095692,435.0416666666667,262.1037503254784,443.375C268.90625,451.7083333333333,268.90625,460.0416666666667,268.90625,464.2083333333333L268.90625,468.375" id="edge1" class="relation" marker-start="url(#extensionStart)"/><path d="M229.44531631469727,395.9310984558128L266.26823298136395,403.838415379844C303.0911496480306,411.74573230387523,376.73698298136395,427.5603661519376,413.5598996480306,442.1343497426355C450.38281631469727,456.7083333333333,450.38281631469727,470.0416666666667,450.38281631469727,476.7083333333333L450.38281631469727,483.375" id="edge2" class="relation" marker-start="url(#extensionStart)"/><path d="M170.9375,273.359375L170.9375,281.6927083333333C170.9375,290.0260416666667,170.9375,306.6927083333333,170.9375,319.1927083333333C170.9375,331.6927083333333,170.9375,340.0260416666667,170.9375,344.1927083333333L170.9375,348.359375" id="edge3" class="relation" marker-start="url(#aggregationStart)"/><g class="cardinality"><text class="type2" x="175.9375" y="335.859375" fill="black" font-size="6">1...*</text></g><path d="M564.2109375,76.89125820667724L498.6653645833333,86.30000683889769C433.1197916666667,95.70875547111815,302.0286458333333,114.52625273555907,236.48307291666666,132.26833470111288C170.9375,150.01041666666666,170.9375,166.67708333333334,170.9375,175.01041666666666L170.9375,183.34375" id="edge4" class="relation"/><g class="cardinality"><text class="type1" x="551.1273198092621" y="73.71809761783055" fill="black" font-size="6">1</text></g><g class="cardinality"><text class="type2" x="175.9375" y="170.84375" fill="black" font-size="6">1</text></g><path d="M564.2109375,104.49481340005647L549.0885416666666,109.30296950004707C533.9661458333334,114.11112560003765,503.7213541666667,123.72743780001883,488.5989583333333,132.70226056667607C473.4765625,141.67708333333334,473.4765625,150.01041666666666,473.4765625,154.17708333333334L473.4765625,158.34375" id="edge5" class="relation" marker-start="url(#dependencyStart)"/><path d="M758.796743943655,108.34375L761.5897345363792,112.51041666666667C764.3827251291033,116.67708333333333,769.9687063145517,125.01041666666667,772.7616969072759,138.34375C775.5546875,151.67708333333334,775.5546875,170.01041666666666,775.5546875,179.17708333333334L775.5546875,188.34375" id="edge6" class="relation"/><g class="cardinality"><text class="type1" x="761.603479791354" y="121.51083904356773" fill="black" font-size="6">1</text></g><g class="cardinality"><text class="type2" x="780.5546875" y="175.84375" fill="black" font-size="6">1</text></g><path d="M775.5546875,268.359375L775.5546875,277.5260416666667C775.5546875,286.6927083333333,775.5546875,305.0260416666667,775.5546875,319.8177083333333C775.5546875,334.609375,775.5546875,345.859375,775.5546875,351.484375L775.5546875,357.109375" id="edge7" class="relation" marker-start="url(#aggregationStart)"/><g class="cardinality"><text class="type2" x="780.5546875" y="344.609375" fill="black" font-size="6">0...*</text></g><path d="M880.7578125,89.45516358146901L913.5703125,96.76992798455751C946.3828125,104.084692387646,1012.0078125,118.71422119382301,1044.8203125,135.19565226357818C1077.6328125,151.67708333333334,1077.6328125,170.01041666666666,1077.6328125,179.17708333333334L1077.6328125,188.34375" id="edge8" class="relation"/><g class="cardinality"><text class="type1" x="891.8704035927351" y="97.05518458181277" fill="black" font-size="6">1</text></g><g class="cardinality"><text class="type2" x="1082.6328125" y="175.84375" fill="black" font-size="6">1</text></g><path d="M1077.6328125,268.359375L1077.6328125,277.5260416666667C1077.6328125,286.6927083333333,1077.6328125,305.0260416666667,1077.6328125,318.4986979166667C1077.6328125,331.9713541666667,1077.6328125,340.5833333333333,1077.6328125,344.8893229166667L1077.6328125,349.1953125" id="edge9" class="relation" marker-start="url(#aggregationStart)"/><g class="cardinality"><text class="type2" x="1082.6328125" y="336.6953125" fill="black" font-size="6">3</text></g></svg>